<?xml version="1.0" encoding="utf-8"?>
<!-- Generator: Adobe Illustrator 24.0.1, SVG Export Plug-In . SVG Version: 6.00 Build 0)  -->
<svg version="1.1" id="Capa_1" xmlns="http://www.w3.org/2000/svg" xmlns:xlink="http://www.w3.org/1999/xlink" x="0px" y="0px"
	 viewBox="0 0 56 56" style="enable-background:new 0 0 56 56;" xml:space="preserve">
<g>
	<path d="M41.1,48H2c-0.6,0-1,0.4-1,1s0.4,1,1,1h39.1c0.5,3.4,3.4,6,6.9,6c3.9,0,7-3.1,7-7s-3.1-7-7-7C44.5,42,41.6,44.6,41.1,48z
		 M53,49c0,2.8-2.2,5-5,5s-5-2.2-5-5s2.2-5,5-5S53,46.2,53,49z"/>
	<path d="M20.7,27H2c-0.6,0-1,0.4-1,1s0.4,1,1,1h18.6c0.4,3.6,3.5,6.4,7.2,6.4s6.8-2.8,7.2-6.4h19c0.6,0,1-0.4,1-1s-0.4-1-1-1H34.9
		c-0.6-3.4-3.5-6-7.1-6S21.3,23.6,20.7,27z M33,28.2c0,2.9-2.3,5.2-5.2,5.2s-5.2-2.3-5.2-5.2s2.3-5.2,5.2-5.2S33,25.3,33,28.2z"/>
	<path d="M8,0C4.1,0,1,3.1,1,7s3.1,7,7,7c3.5,0,6.4-2.6,6.9-6H54c0.6,0,1-0.4,1-1s-0.4-1-1-1H14.9C14.4,2.6,11.5,0,8,0z M13,7
		c0,2.8-2.2,5-5,5S3,9.8,3,7s2.2-5,5-5S13,4.2,13,7z"/>
</g>
</svg>
